Coordinates
version=1
nRows=29
nColumns=24
inDegrees=yes

Units are S.I. units (second, meters, Newtons, ...)
Angles are in degrees.

endheader
time	pelvis_tilt	pelvis_list	pelvis_rotation	pelvis_tx	pelvis_ty	pelvis_tz	hip_flexion_r	hip_adduction_r	hip_rotation_r	knee_angle_r	ankle_angle_r	subtalar_angle_r	mtp_angle_r	hip_flexion_l	hip_adduction_l	hip_rotation_l	knee_angle_l	ankle_angle_l	subtalar_angle_l	mtp_angle_l	lumbar_extension	lumbar_bending	lumbar_rotation
      3.73000000	     -3.66204802	      9.65433738	      0.90676470	     -0.70496859	     -0.02018685	     -0.14925452	     28.68349078	     -8.43281955	      2.47595008	    -70.02672686	     -9.67297208	      3.50295867	     24.55897146	     10.63329348	     18.16102385	     -4.95792712	    -16.84614626	      8.33325875	      1.84186258	    -12.87318897	      6.34941312	    -12.08692206	     -1.10492950
      3.73500000	     -3.52994443	      9.46474749	      0.96716200	     -0.69902709	     -0.01933847	     -0.14977631	     29.26412627	     -8.18846244	      2.31511945	    -69.19457229	     -9.11195511	      3.41075613	     24.54629740	      9.64166921	     18.06787144	     -4.40341017	    -16.26103760	      8.41567264	      1.66636644	    -13.07329072	      6.16272626	    -11.87012179	     -1.23967443
      3.74000000	     -3.45382015	      9.23155243	      1.01977670	     -0.69313345	     -0.01857088	     -0.15025904	     29.87752819	     -7.88311306	      2.16369282	    -68.27624890	     -8.60466351	      3.33095175	     24.45935488	      8.75013272	     17.90393244	     -3.99087680	    -15.72498601	      8.52687351	      1.58843506	    -13.19393545	      6.03206177	    -11.60582785	     -1.39077363
      3.74500000	     -3.34759593	      9.02133513	      1.08343724	     -0.68726938	     -0.01784544	     -0.15073600	     30.42864292	     -7.62657507	      1.97312424	    -67.29587703	     -8.08091946	      3.23445524	     24.28204777	      7.82121130	     17.75801330	     -3.56245208	    -15.17534065	      8.62446498	      1.51871553	    -13.30761813	      5.85914206	    -11.37245963	     -1.54156310
      3.75000000	     -3.27012999	      8.81355902	      1.14603274	     -0.68143840	     -0.01720767	     -0.15120016	     30.99031615	     -7.37737163	      1.77988562	    -66.25478143	     -7.58355131	      3.15373913	     24.05430161	      6.94416950	     17.60106224	     -3.21085257	    -14.64700684	      8.73000215	      1.50482265	    -13.37689415	      5.70977146	    -11.13845511	     -1.68359947
      3.75500000	     -3.14698369	      8.63014465	      1.21646444	     -0.67564823	     -0.01661244	     -0.15163873	     31.47404817	     -7.17311324	      1.54855588	    -65.16227106	     -7.04204873	      3.07502438	     23.69543488	      6.01711902	     17.46209692	     -2.84227800	    -14.11269634	      8.83895233	      1.50454275	    -13.41740676	      5.49999410	    -10.94055617	     -1.83663894
      3.76000000	     -3.08051695	      8.41818994	      1.28305240	     -0.66987077	     -0.01608069	     -0.15207031	     31.98680334	     -6.93802224	      1.32144977	    -63.98493318	     -6.57143355	      3.06035533	     23.35287679	      5.17977780	     17.27897893	     -2.59225126	    -13.60951987	      8.93924838	      1.57361424	    -13.41471391	      5.35162117	    -10.70570690	     -1.98651700
      3.76500000	     -3.02137951	      8.21679381	      1.34201537	     -0.66408809	     -0.01564893	     -0.15244692	     32.48652077	     -6.72433785	      1.06937672	    -62.75591049	     -6.12555372	      3.06562676	     23.02913555	      4.35887928	     17.09694483	     -2.38440785	    -13.11509892	      9.09398186	      1.67019864	    -13.37551459	      5.21931466	    -10.49984792	     -2.11220688
      3.77000000	     -2.90520004	      8.02743356	      1.42226016	     -0.65839237	     -0.01518987	     -0.15280407	     32.87875315	     -6.53441980	      0.79437307	    -61.45408257	     -5.62663008	      3.09305164	     22.59854936	      3.49450128	     16.91660152	     -2.16856914	    -12.64516137	      9.19531029	      1.81028548	    -13.31389633	      4.99312133	    -10.30617258	     -2.28485590
      3.77500000	     -2.95271372	      7.86559420	      1.46008155	     -0.65268475	     -0.01502337	     -0.15312042	     33.46267974	     -6.34529642	      0.59677944	    -60.12258421	     -5.21773724	      3.12542033	     22.40594005	      2.83878484	     16.76386441	     -2.00806276	    -12.21508302	      9.36540034	      1.95512123	    -13.26194517	      4.96323227	    -10.12035874	     -2.31407624
      3.78000000	     -2.73021362	      7.64746347	      1.58604489	     -0.64703622	     -0.01451589	     -0.15352189	     33.64985721	     -6.19863686	      0.17703294	    -58.68444029	     -4.73971982	      3.30495978	     21.89001815	      1.87754033	     16.54235704	     -1.85248121	    -11.77100681	      9.46182089	      2.14839575	    -13.16368628	      4.59406139	     -9.90872059	     -2.61266975
      3.78500000	     -2.63877123	      7.46420621	      1.66997638	     -0.64135922	     -0.01426114	     -0.15384248	     33.97628448	     -6.04483487	     -0.14875474	    -57.22051531	     -4.24945514	      3.51018731	     21.41279263	      1.08868318	     16.35541978	     -1.71624881	    -11.37136409	      9.59954117	      2.29866978	    -13.04495298	      4.39755681	     -9.72235781	     -2.77298826
      3.79000000	     -2.56322964	      7.28912066	      1.76526433	     -0.63574915	     -0.01406747	     -0.15411496	     34.29247631	     -5.91189046	     -0.49994150	    -55.70126828	     -3.77639385	      3.75867302	     21.01582553	      0.34738735	     16.16719344	     -1.59027054	    -11.01702500	      9.72723696	      2.47498491	    -12.92968961	      4.19127227	     -9.56077844	     -2.94227237
      3.79500000	     -2.49190041	      7.12196342	      1.86704947	     -0.63014460	     -0.01393246	     -0.15440070	     34.57372900	     -5.79634503	     -0.85410412	    -54.12154043	     -3.31327064	      4.04061371	     20.67225572	     -0.36724896	     15.98594302	     -1.47196092	    -10.70424801	      9.87912553	      2.65582711	    -12.81790834	      3.99705440	     -9.39784763	     -3.10330461
      3.80000000	     -2.42455776	      6.95354649	      1.97771443	     -0.62459602	     -0.01384358	     -0.15464424	     34.82378051	     -5.68932561	     -1.23543376	    -52.48383208	     -2.85793316	      4.36681784	     20.38543990	     -1.04743580	     15.79605251	     -1.36750282	    -10.43782579	     10.03836134	      2.84478497	    -12.72212298	      3.79101008	     -9.24591940	     -3.27745953
      3.80500000	     -2.35474092	      6.78978658	      2.09576026	     -0.61905742	     -0.01379985	     -0.15488873	     35.02936982	     -5.59811693	     -1.63137849	    -50.79089529	     -2.39805573	      4.73053169	     20.13003141	     -1.70660661	     15.60647325	     -1.27189495	    -10.21557608	     10.21784891	      3.04573632	    -12.63972570	      3.57717082	     -9.09634821	     -3.45833058
      3.81000000	     -2.27999701	      6.62814597	      2.21384227	     -0.61356060	     -0.01379761	     -0.15508833	     35.19357485	     -5.51351028	     -2.04912715	    -49.04977365	     -1.92826426	      5.12930270	     19.88363213	     -2.34302961	     15.41027596	     -1.18847816	    -10.03836375	     10.41421233	      3.26868901	    -12.57566209	      3.34577234	     -8.96015106	     -3.64172594
      3.81500000	     -2.21996924	      6.47038859	      2.34405236	     -0.60808621	     -0.01385744	     -0.15531401	     35.33217239	     -5.44280400	     -2.47084259	    -47.25892380	     -1.46579936	      5.55008789	     19.67894100	     -2.92920370	     15.21774182	     -1.11811051	     -9.92461718	     10.64039688	      3.49702755	    -12.53060913	      3.13260606	     -8.81918283	     -3.82583691
      3.82000000	     -2.16100004	      6.31597178	      2.47118828	     -0.60263965	     -0.01396523	     -0.15549361	     35.43562067	     -5.37465153	     -2.90633575	    -45.42724780	     -1.00326187	      5.98190005	     19.48837058	     -3.48823650	     15.01965297	     -1.06629512	     -9.85355469	     10.88896868	      3.75684497	    -12.50926171	      2.91051148	     -8.68739382	     -4.00956717
      3.82500000	     -2.09636215	      6.16367219	      2.60225563	     -0.59721626	     -0.01410771	     -0.15567770	     35.49182324	     -5.31222353	     -3.34795266	    -43.55629456	     -0.54696641	      6.42245977	     19.28715801	     -4.02599253	     14.81745447	     -1.04207629	     -9.83140927	     11.17332707	      4.07027506	    -12.51910574	      2.68213420	     -8.55700885	     -4.19802014
      3.83000000	     -2.04482457	      6.01552296	      2.74138812	     -0.59181937	     -0.01431360	     -0.15586040	     35.52345718	     -5.25750700	     -3.80030167	    -41.65282170	     -0.09586704	      6.84937390	     19.10390636	     -4.51096505	     14.61504021	     -1.03902289	     -9.88138357	     11.49624728	      4.40809198	    -12.54672346	      2.45984736	     -8.42568312	     -4.38334401
      3.83500000	     -1.99663812	      5.86791867	      2.87611229	     -0.58643863	     -0.01456940	     -0.15601534	     35.52390285	     -5.19620804	     -4.25519478	    -39.72617413	      0.33788384	      7.25210269	     18.91254687	     -4.96618199	     14.40498570	     -1.07299848	     -9.97582696	     11.85366986	      4.80211672	    -12.60172677	      2.23697843	     -8.30002072	     -4.56679742
      3.84000000	     -1.94132083	      5.71840165	      3.00563361	     -0.58105545	     -0.01483775	     -0.15613990	     35.47285025	     -5.11686413	     -4.67867025	    -37.77251247	      0.74092035	      7.63566057	     18.67345078	     -5.40733147	     14.17892382	     -1.16784896	    -10.11210498	     12.26418141	      5.32781787	    -12.72181745	      2.01350640	     -8.17802332	     -4.77609567
      3.84500000	     -1.91802157	      5.56829780	      3.14704187	     -0.57571043	     -0.01521453	     -0.15630222	     35.43444951	     -5.04958699	     -5.15448456	    -35.82275824	      1.12932379	      7.95943931	     18.44824979	     -5.76634341	     13.95560952	     -1.27784422	    -10.33607907	     12.71784486	      5.82250085	    -12.83874308	      1.81422253	     -8.04355367	     -4.93073427
      3.85000000	     -1.83439645	      5.41631466	      3.20296574	     -0.57035841	     -0.01558342	     -0.15624335	     35.30283350	     -4.87358655	     -5.40228688	    -33.87564598	      1.50032271	      8.23678488	     17.98890808	     -6.12119035	     13.69044906	     -1.74078417	    -10.70437490	     13.49117156	      6.83843238	    -13.37857814	      1.56182271	     -7.91196320	     -5.02125916
      3.85500000	     -1.82213791	      5.27152816	      3.34444940	     -0.56497975	     -0.01602555	     -0.15637237	     35.21595523	     -4.78502563	     -5.80980758	    -31.94381652	      1.83540003	      8.50082213	     17.68224095	     -6.41623067	     13.44760654	     -2.00563915	    -11.05521989	     14.15298322	      7.63671549	    -13.98592923	      1.38377927	     -7.78720107	     -5.21608989
      3.86000000	     -1.82921031	      5.13206305	      3.48318145	     -0.55959653	     -0.01652335	     -0.15647368	     35.13583593	     -4.68234543	     -6.17773038	    -30.04545834	      2.09717095	      8.65593980	     17.34222483	     -6.67274315	     13.20163066	     -2.29603446	    -11.43499201	     14.79406569	      8.45238002	    -14.50113121	      1.22976345	     -7.67080144	     -5.39707053
      3.86500000	     -1.85404904	      4.99137070	      3.55517463	     -0.55406386	     -0.01708538	     -0.15647556	     35.07335029	     -4.52801499	     -6.50752772	    -28.21887728	      2.35679798	      8.78102374	     16.80992496	     -6.90019394	     12.93855476	     -2.84863231	    -11.85285529	     15.58486623	      9.54509987	    -15.35212417	      1.13206540	     -7.54866232	     -5.48587765
      3.87000000	     -1.87890434	      4.88145237	      3.70656915	     -0.54864920	     -0.01770115	     -0.15656357	     35.00566575	     -4.43815847	     -6.79648390	    -26.47820821	      2.63826904	      8.93122377	     16.24923508	     -7.10486520	     12.70712383	     -3.15620845	    -12.32228419	     16.30132568	     10.42852413	    -16.08443967	      0.99551783	     -7.46308001	     -5.66443541
